<?xml version="1.0" encoding="utf-8"?>
<!-- Generator: Adobe Illustrator 24.0.0, SVG Export Plug-In . SVG Version: 6.00 Build 0)  -->
<svg version="1.1" id="Layer_2" xmlns="http://www.w3.org/2000/svg" xmlns:xlink="http://www.w3.org/1999/xlink" x="0px" y="0px"
	 viewBox="0 0 512 512" enable-background="new 0 0 512 512" xml:space="preserve">
<g>
	<g>
		<rect x="388" y="41" fill="#6E83B7" width="114" height="310"/>
	</g>
	<path fill="#FFD3B3" d="M104.5,41C85.446,41,70,56.446,70,75.5l0,0c0,19.054,15.446,34.5,34.5,34.5h-30
		C55.446,110,40,125.446,40,144.5l0,0c0,19.054,15.446,34.5,34.5,34.5h-30C25.446,179,10,194.446,10,213.5l0,0
		c0,19.054,15.446,34.5,34.5,34.5h30C55.446,248,40,263.446,40,282.5l0,0c0,19.054,15.446,34.5,34.5,34.5H216v55v64
		c0,19.33,15.67,35,35,35s35-15.67,35-35v-38.224c0-16.303,7.365-31.733,20.041-41.986L354,317h34V41H104.5z"/>
	<g>
		<circle fill="#FFE352" cx="445" cy="295" r="27"/>
	</g>
</g>
</svg>
