<svg xmlns="http://www.w3.org/2000/svg" viewBox="0 0 48 48"><defs><style>.cls-1{fill:#f6ccaf;}.cls-2{fill:#ffdec7;}.cls-3{fill:#6fabe6;}.cls-4{fill:#82bcf4;}.cls-5{fill:#edebf2;}</style></defs><title>Tumbs up like</title><g id="Tumbs_up_like" data-name="Tumbs up like"><path class="cls-1" d="M46.12,31.12A3.76,3.76,0,0,1,43,32a3,3,0,0,1,2.12,5.12C44.05,38.19,43,38,41,38a3,3,0,0,1,0,6c-20.11,0-21.46.58-28-2V20c3.48-1.16,5.69-1.65,7.91-4.39,2.47-3.07,2.76-5.64,3.68-9.76C25.31,2.68,31,4.73,31,9.19A20.94,20.94,0,0,1,28,20v0c15.15,0,14.93-.31,16.12.88A3,3,0,0,1,42,26h2A3,3,0,0,1,46.12,31.12Z"/><path class="cls-2" d="M44,32H43a3,3,0,0,1,0,6H41a3,3,0,0,1,2.84,4C42.66,42,24.91,42,25,42c-1.74,0-6.56-.61-6.46-.6a4,4,0,0,1-3.55-4V19.34A11.27,11.27,0,0,0,20.57,16c2.77-3.19,3.08-6,4-10.17C25.31,2.68,31,4.73,31,9.19A20.94,20.94,0,0,1,28,20v0c15.15,0,14.93-.31,16.12.88A3,3,0,0,1,42,26h1.83A3.11,3.11,0,0,1,47,28.78,3,3,0,0,1,44,32Z"/><path class="cls-1" d="M44,32H43a2.94,2.94,0,0,1,2.23,1H38a1,1,0,0,1,0-2h8.23A3,3,0,0,1,44,32Z"/><path class="cls-1" d="M41,38a3,3,0,0,1,2.12.88c.17.17.68.12-5.12.12a1,1,0,0,1,0-2c8,0,7.29,0,7.12.12C44.05,38.19,43,38,41,38Z"/><path class="cls-1" d="M46.23,27H38a1,1,0,0,1,0-2h6.23A2.94,2.94,0,0,1,42,26C43.79,26,45.16,25.77,46.23,27Z"/><path class="cls-3" d="M13,21c0,21.73.06,20.24-.13,20.87A3,3,0,0,1,10,44H1V18h9A3,3,0,0,1,13,21Z"/><path class="cls-4" d="M13,21c0,21.73.06,20.24-.13,20.87A3.1,3.1,0,0,1,12,42H6a3,3,0,0,1-3-3V18h7A3,3,0,0,1,13,21Z"/><path class="cls-5" d="M9,41a1,1,0,1,1,.71-1.71A1,1,0,0,1,9,41Z"/></g></svg>